# xmcd
#
# Track frame offsets:
#	150
#	20035
#	40600
#	76277
#	97800
#	118167
#	138497
#	154580
#	172180
#	204435
#
# Disc length: 3058 seconds
#
# Revision: 0
# Processed by: cddbd v1.4PL0 Copyright (c) Steve Scherf et al.
# Submitted via: dBpowerAMP V4.0
#
DISCID=7c0bf00a
DTITLE=Billy Paul - Vinte e um grande sucesso
DYEAR=1900
DGENRE=
TTITLE0=I´m gonna make it this time
TTITLE1=Brown baby
TTITLE2=I´m just a prisoner
TTITLE3=War of the gods
TTITLE4=It´s too late
TTITLE5=Mrs. Robinson
TTITLE6=Somewhere
TTITLE7=Everyday people
TTITLE8=Let´s make a baby
TTITLE9=July, July, July, July,
EXTD=
EXTT0=
EXTT1=
EXTT2=
EXTT3=
EXTT4=
EXTT5=
EXTT6=
EXTT7=
EXTT8=
EXTT9=
PLAYORDER=
